# xmcd
#
# Track frame offsets:
# 150
# 17578
# 35006
# 54722
# 76589
# 92996
# 107326
# 119760
# 131837
# 150579
# 170011
# 184037
# 201169
# 215468
# 231322
#
# Disc length: 3265 seconds
#
#
# Revision: 0
# Processed by: cddbd v1.5.2PL0 Copyright (c) Steve Scherf et al.
# Submitted via: FreeRIP 2.945 
#
DISCID=cd0cbf0f
DTITLE=Kenny Rogers - This Is Gold CD 1
DYEAR=2005
DGENRE=Country
TTITLE0=Lady
TTITLE1=Endless Love
TTITLE2=She Believes In Me
TTITLE3=Have I Told You Latly That I Love You
TTITLE4=The Wind Beneath My Wings
TTITLE5=You Light Up My Life
TTITLE6=Somewhere My Love
TTITLE7=Love Is A Many Splendored Thing
TTITLE8=My Funny Valentine
TTITLE9=I Only Have Eyes For You
TTITLE10=I Only Have Eyes For You
TTITLE11=When A Man Loves A Woman
TTITLE12=You Are So Beautiful To Me
TTITLE13=Unchained Melody
TTITLE14=I Will Always Love You
EXTD=
EXTT0=
EXTT1=
EXTT2=
EXTT3=
EXTT4=
EXTT5=
EXTT6=
EXTT7=
EXTT8=
EXTT9=
EXTT10=
EXTT11=
EXTT12=
EXTT13=
EXTT14=
PLAYORDER=
